<svg width="2201" height="1024" viewBox="0 0 2201 1024" fill="none" xmlns="http://www.w3.org/2000/svg">
<g clip-path="url(#clip0)">
<path fill-rule="evenodd" clip-rule="evenodd" d="M1881.6 272H317.4C292.489 272 274 290.757 274 311.855V712.145C274 733.243 292.489 752 317.4 752H1881.6C1906.51 752 1925 733.243 1925 712.145V311.855C1925 290.757 1906.51 272 1881.6 272ZM317.4 256H1881.6C1914.41 256 1941 281.007 1941 311.855V712.145C1941 742.993 1914.41 768 1881.6 768H317.4C284.594 768 258 742.993 258 712.145V311.855C258 281.007 284.594 256 317.4 256Z" fill="black"/>
<path d="M1867.6 349V401.803L1641.65 401.803V482.913L1786.16 482.911V537.195L1641.69 537.197V618.455L1867.6 618.453V675H1611.45H1609.41C1587.78 674.031 1570.57 655.467 1570.57 635.514V386.285L1570.62 384.426L1570.78 382.531C1572.84 363.717 1590.26 349 1611.45 349H1867.6ZM1448.98 349C1482.07 349 1509.04 373.856 1510.25 403.75L1510.29 405.845V465.181C1510.29 482.827 1502.31 499.649 1488.3 511.721L1486.16 513.496L1488.18 514.837C1501.38 524.003 1509.45 538.033 1510.23 553.138L1510.29 555.531V615.417C1510.29 645.58 1484.07 673.898 1451.28 675H1448.98H1182.3V349H1448.98ZM1419.45 548.381H1258.83V619.788H1419.45C1430.22 619.788 1439.05 612.189 1439.83 602.55L1439.88 601.159V567.01C1439.88 557.189 1431.55 549.143 1420.97 548.432L1419.45 548.381ZM1419.45 407.735H1258.83V479.142H1419.45C1430.22 479.142 1439.05 471.543 1439.83 461.904L1439.88 460.514V426.364C1439.88 416.543 1431.55 408.498 1420.97 407.786L1419.45 407.735ZM835.801 349H763.071L762.767 471.254C762.705 519.028 762.931 557.008 763.611 595.665C764.437 642.664 791.658 673.729 838.194 675C899.029 676.565 962.83 676.481 1035.29 675C1072.78 674.119 1097.94 651.719 1106.11 619.725C1108.83 608.573 1110.36 597.201 1110.66 585.724L1110.86 551.677C1110.92 534.572 1110.96 517.077 1110.98 498.226L1110.92 349H1038.14L1038.15 559.551C1038.15 563.107 1038.03 566.661 1037.79 570.213L1037.33 575.539L1036.7 580.861C1033.54 603.273 1018.76 616.331 994.597 616.765C956.171 617.383 917.758 617.383 879.381 616.766C855.618 616.428 841.132 604.149 837.317 582.091C836.435 576.395 835.935 570.654 835.821 564.963L835.801 349ZM638.534 349C666.007 349 688.415 368.768 689.575 393.551L689.622 395.571V523.14L742.054 523.145V576.644L689.622 576.641V628.429C689.622 653.472 667.937 673.942 640.75 675H638.534H383.089C355.616 675 333.208 655.232 332.047 630.449L332 628.429V395.571C332 370.528 353.685 350.058 380.873 349H383.089H638.534ZM601.621 402.82H421.205C411.823 402.82 404.129 409.406 403.383 417.783L403.323 419.12V602.285C403.323 610.837 410.549 617.851 419.738 618.531L421.205 618.585H601.621C611.003 618.585 618.697 611.999 619.443 603.622L619.502 602.285L619.498 576.641L562.922 576.644V523.145L619.498 523.14L619.502 419.12C619.502 410.568 612.277 403.554 603.088 402.874L601.621 402.82Z" fill="black"/>
</g>
<defs>
<clipPath id="clip0">
<rect width="2200.53" height="1024" fill="white" transform="translate(0.233398)"/>
</clipPath>
</defs>
</svg>
